<?xml version="1.0" encoding="UTF-8" standalone="no"?>
<!DOCTYPE svg PUBLIC "-//W3C//DTD SVG 1.1//EN"
 "http://www.w3.org/Graphics/SVG/1.1/DTD/svg11.dtd">
<!-- Generated by graphviz version 2.38.0 (20140413.2041)
 -->
<!-- Title: G Pages: 1 -->
<svg width="1274pt" height="1250pt"
 viewBox="0.00 0.00 1273.94 1250.47" xmlns="http://www.w3.org/2000/svg" xmlns:xlink="http://www.w3.org/1999/xlink">
<g id="graph0" class="graph" transform="scale(1 1) rotate(0) translate(4 1246.47)">
<title>G</title>
<polygon fill="white" stroke="none" points="-4,4 -4,-1246.47 1269.94,-1246.47 1269.94,4 -4,4"/>
<!-- Presentations -->
<g id="node1" class="node"><title>Presentations</title>
<polygon fill="none" stroke="black" points="634.399,-552.851 545.399,-552.851 545.399,-516.851 634.399,-516.851 634.399,-552.851"/>
<text text-anchor="middle" x="589.899" y="-531.151" font-family="Times,serif" font-size="14.00">Presentations</text>
</g>
<!-- Title -->
<g id="node9" class="node"><title>Title</title>
<ellipse fill="none" stroke="black" cx="1086.03" cy="-534.851" rx="27.0966" ry="18"/>
<text text-anchor="middle" x="1086.03" y="-531.151" font-family="Times,serif" font-size="14.00">Title</text>
</g>
<!-- Presentations&#45;&gt;Title -->
<g id="edge1" class="edge"><title>Presentations&#45;&gt;Title</title>
<path fill="none" stroke="black" d="M634.803,-534.851C731.646,-534.851 958.632,-534.851 1048.47,-534.851"/>
<polygon fill="black" stroke="black" points="1048.73,-538.351 1058.73,-534.851 1048.73,-531.351 1048.73,-538.351"/>
</g>
<!-- Abstract -->
<g id="node10" class="node"><title>Abstract</title>
<ellipse fill="none" stroke="black" cx="951.324" cy="-874.737" rx="40.0939" ry="18"/>
<text text-anchor="middle" x="951.324" y="-871.037" font-family="Times,serif" font-size="14.00">Abstract</text>
</g>
<!-- Presentations&#45;&gt;Abstract -->
<g id="edge2" class="edge"><title>Presentations&#45;&gt;Abstract</title>
<path fill="none" stroke="black" d="M609.076,-552.885C669.922,-610.104 858.622,-787.559 926.6,-851.486"/>
<polygon fill="black" stroke="black" points="924.225,-854.057 933.908,-858.358 929.021,-848.958 924.225,-854.057"/>
</g>
<!-- Presentation ID -->
<g id="node11" class="node"><title>Presentation ID</title>
<ellipse fill="none" stroke="black" cx="479.848" cy="-679.99" rx="65.7887" ry="18"/>
<text text-anchor="middle" x="479.848" y="-676.29" font-family="Times,serif" font-size="14.00">Presentation ID</text>
</g>
<!-- Presentations&#45;&gt;Presentation ID -->
<g id="edge3" class="edge"><title>Presentations&#45;&gt;Presentation ID</title>
<path fill="none" stroke="black" d="M576.184,-552.939C556.885,-578.391 521.609,-624.914 499.519,-654.047"/>
<polygon fill="black" stroke="black" points="496.644,-652.046 493.391,-662.129 502.222,-656.276 496.644,-652.046"/>
</g>
<!-- Talks -->
<g id="node2" class="node"><title>Talks</title>
<polygon fill="none" stroke="black" points="312.227,-292.143 258.227,-292.143 258.227,-256.143 312.227,-256.143 312.227,-292.143"/>
<text text-anchor="middle" x="285.227" y="-270.443" font-family="Times,serif" font-size="14.00">Talks</text>
</g>
<!-- Talks&#45;&gt;Presentations -->
<g id="edge4" class="edge"><title>Talks&#45;&gt;Presentations</title>
<path fill="none" stroke="black" d="M306.651,-292.476C360.188,-338.287 499.869,-457.812 560.785,-509.938"/>
<polygon fill="black" stroke="black" points="558.625,-512.696 568.499,-516.539 563.176,-507.378 558.625,-512.696"/>
<text text-anchor="middle" x="412.218" y="-405.007" font-family="Times,serif" font-size="14.00">Talk ID</text>
</g>
<!-- Time interval -->
<g id="node12" class="node"><title>Time interval</title>
<ellipse fill="none" stroke="black" cx="165.069" cy="-171.324" rx="59.2899" ry="18"/>
<text text-anchor="middle" x="165.069" y="-167.624" font-family="Times,serif" font-size="14.00">Time interval</text>
</g>
<!-- Talks&#45;&gt;Time interval -->
<g id="edge5" class="edge"><title>Talks&#45;&gt;Time interval</title>
<path fill="none" stroke="black" d="M277.673,-256.011C263.522,-237.876 233.895,-210.964 208.457,-192.1"/>
<polygon fill="black" stroke="black" points="210.182,-189.03 200.019,-186.036 206.097,-194.714 210.182,-189.03"/>
<text text-anchor="middle" x="203.565" y="-212.856" font-family="Times,serif" font-size="14.00">Speaking time</text>
</g>
<!-- Talks&#45;&gt;Time interval -->
<g id="edge6" class="edge"><title>Talks&#45;&gt;Time interval</title>
<path fill="none" stroke="black" d="M258.06,-264.629C233.479,-248.931 198.723,-219.234 179.157,-197.245"/>
<polygon fill="black" stroke="black" points="181.793,-194.942 172.683,-189.533 176.432,-199.442 181.793,-194.942"/>
<text text-anchor="middle" x="179.608" y="-234.737" font-family="Times,serif" font-size="14.00">Question time</text>
</g>
<!-- Talks&#45;&gt;Time interval -->
<g id="edge7" class="edge"><title>Talks&#45;&gt;Time interval</title>
<path fill="none" stroke="black" d="M264.022,-255.998C244.307,-239.128 214.806,-213.884 193.144,-195.348"/>
<polygon fill="black" stroke="black" points="195.136,-192.446 185.262,-188.604 190.584,-197.765 195.136,-192.446"/>
<text text-anchor="middle" x="257.583" y="-229.473" font-family="Times,serif" font-size="14.00">Total time</text>
</g>
<!-- Authors -->
<g id="node3" class="node"><title>Authors</title>
<polygon fill="none" stroke="black" points="211.293,-1091.73 151.293,-1091.73 151.293,-1055.73 211.293,-1055.73 211.293,-1091.73"/>
<text text-anchor="middle" x="181.293" y="-1070.03" font-family="Times,serif" font-size="14.00">Authors</text>
</g>
<!-- First name -->
<g id="node13" class="node"><title>First name</title>
<ellipse fill="none" stroke="black" cx="330.533" cy="-1052.48" rx="48.9926" ry="18"/>
<text text-anchor="middle" x="330.533" y="-1048.78" font-family="Times,serif" font-size="14.00">First name</text>
</g>
<!-- Authors&#45;&gt;First name -->
<g id="edge9" class="edge"><title>Authors&#45;&gt;First name</title>
<path fill="none" stroke="black" d="M211.494,-1069.43C229.655,-1066.85 253.336,-1063.48 274.789,-1060.42"/>
<polygon fill="black" stroke="black" points="275.376,-1063.87 284.783,-1059 274.39,-1056.94 275.376,-1063.87"/>
</g>
<!-- Last name -->
<g id="node14" class="node"><title>Last name</title>
<ellipse fill="none" stroke="black" cx="182.968" cy="-1224.47" rx="48.1917" ry="18"/>
<text text-anchor="middle" x="182.968" y="-1220.77" font-family="Times,serif" font-size="14.00">Last name</text>
</g>
<!-- Authors&#45;&gt;Last name -->
<g id="edge10" class="edge"><title>Authors&#45;&gt;Last name</title>
<path fill="none" stroke="black" d="M181.495,-1091.92C181.783,-1117.83 182.314,-1165.63 182.654,-1196.2"/>
<polygon fill="black" stroke="black" points="179.154,-1196.26 182.765,-1206.22 186.154,-1196.19 179.154,-1196.26"/>
</g>
<!-- email -->
<g id="node15" class="node"><title>email</title>
<ellipse fill="none" stroke="black" cx="30.5473" cy="-1073.96" rx="30.5947" ry="18"/>
<text text-anchor="middle" x="30.5473" y="-1070.26" font-family="Times,serif" font-size="14.00">email</text>
</g>
<!-- Authors&#45;&gt;email -->
<g id="edge11" class="edge"><title>Authors&#45;&gt;email</title>
<path fill="none" stroke="black" d="M151.149,-1073.78C128.295,-1073.81 96.6353,-1073.86 71.4888,-1073.9"/>
<polygon fill="black" stroke="black" points="71.1497,-1070.4 61.1551,-1073.91 71.1603,-1077.4 71.1497,-1070.4"/>
</g>
<!-- Posters -->
<g id="node4" class="node"><title>Posters</title>
<polygon fill="none" stroke="black" points="833.47,-105.996 777.47,-105.996 777.47,-69.9955 833.47,-69.9955 833.47,-105.996"/>
<text text-anchor="middle" x="805.47" y="-84.2955" font-family="Times,serif" font-size="14.00">Posters</text>
</g>
<!-- Posters&#45;&gt;Presentations -->
<g id="edge14" class="edge"><title>Posters&#45;&gt;Presentations</title>
<path fill="none" stroke="black" d="M796.752,-106.066C763.338,-175.33 643.298,-424.16 603.113,-507.461"/>
<polygon fill="black" stroke="black" points="599.918,-506.028 598.725,-516.555 606.223,-509.069 599.918,-506.028"/>
<text text-anchor="middle" x="673.932" y="-310.563" font-family="Times,serif" font-size="14.00">Poster ID</text>
</g>
<!-- Board No -->
<g id="node16" class="node"><title>Board No</title>
<ellipse fill="none" stroke="black" cx="660.376" cy="-18" rx="45.4919" ry="18"/>
<text text-anchor="middle" x="660.376" y="-14.3" font-family="Times,serif" font-size="14.00">Board No</text>
</g>
<!-- Posters&#45;&gt;Board No -->
<g id="edge15" class="edge"><title>Posters&#45;&gt;Board No</title>
<path fill="none" stroke="black" d="M777.15,-74.3335C754.773,-63.5384 723.317,-48.3638 698.69,-36.4834"/>
<polygon fill="black" stroke="black" points="700.147,-33.3001 689.619,-32.1074 697.105,-39.6048 700.147,-33.3001"/>
</g>
<!-- Date and time -->
<g id="node17" class="node"><title>Date and time</title>
<ellipse fill="none" stroke="black" cx="950.563" cy="-157.991" rx="61.1893" ry="18"/>
<text text-anchor="middle" x="950.563" y="-154.291" font-family="Times,serif" font-size="14.00">Date and time</text>
</g>
<!-- Posters&#45;&gt;Date and time -->
<g id="edge16" class="edge"><title>Posters&#45;&gt;Date and time</title>
<path fill="none" stroke="black" d="M833.79,-101.658C855.267,-112.019 885.108,-126.414 909.247,-138.06"/>
<polygon fill="black" stroke="black" points="907.998,-141.343 918.526,-142.536 911.04,-135.038 907.998,-141.343"/>
</g>
<!-- Room -->
<g id="node5" class="node"><title>Room</title>
<polygon fill="none" stroke="black" points="881.855,-403.851 827.855,-403.851 827.855,-367.851 881.855,-367.851 881.855,-403.851"/>
<text text-anchor="middle" x="854.855" y="-382.151" font-family="Times,serif" font-size="14.00">Room</text>
</g>
<!-- Chairs -->
<g id="node6" class="node"><title>Chairs</title>
<polygon fill="none" stroke="black" points="188.477,-942.297 134.477,-942.297 134.477,-906.297 188.477,-906.297 188.477,-942.297"/>
<text text-anchor="middle" x="161.477" y="-920.597" font-family="Times,serif" font-size="14.00">Chairs</text>
</g>
<!-- Chairs&#45;&gt;Authors -->
<g id="edge13" class="edge"><title>Chairs&#45;&gt;Authors</title>
<path fill="none" stroke="black" d="M163.867,-942.322C167.274,-968.015 173.558,-1015.41 177.576,-1045.7"/>
<polygon fill="black" stroke="black" points="174.11,-1046.19 178.894,-1055.64 181.049,-1045.27 174.11,-1046.19"/>
<text text-anchor="middle" x="138.721" y="-997.813" font-family="Times,serif" font-size="14.00">Chair name</text>
</g>
<!-- Author Lists -->
<g id="node7" class="node"><title>Author Lists</title>
<polygon fill="none" stroke="black" points="413.506,-841.535 328.506,-841.535 328.506,-805.535 413.506,-805.535 413.506,-841.535"/>
<text text-anchor="middle" x="371.006" y="-819.835" font-family="Times,serif" font-size="14.00">Author Lists</text>
</g>
<!-- Author Lists&#45;&gt;Authors -->
<g id="edge8" class="edge"><title>Author Lists&#45;&gt;Authors</title>
<path fill="none" stroke="black" d="M357.055,-841.933C323.81,-885.778 239.81,-996.559 201.229,-1047.44"/>
<polygon fill="black" stroke="black" points="198.26,-1045.56 195.007,-1055.65 203.838,-1049.79 198.26,-1045.56"/>
<text text-anchor="middle" x="253.142" y="-948.487" font-family="Times,serif" font-size="14.00">an author</text>
</g>
<!-- Author Lists&#45;&gt;Presentation ID -->
<g id="edge12" class="edge"><title>Author Lists&#45;&gt;Presentation ID</title>
<path fill="none" stroke="black" d="M384.79,-805.355C403.846,-780.224 438.344,-734.727 460.124,-706.002"/>
<polygon fill="black" stroke="black" points="462.922,-708.105 466.175,-698.022 457.344,-703.876 462.922,-708.105"/>
<text text-anchor="middle" x="390.957" y="-759.479" font-family="Times,serif" font-size="14.00">is author of</text>
</g>
<!-- Equipment List -->
<g id="node8" class="node"><title>Equipment List</title>
<polygon fill="none" stroke="black" points="1054.86,-403.851 953.855,-403.851 953.855,-367.851 1054.86,-367.851 1054.86,-403.851"/>
<text text-anchor="middle" x="1004.36" y="-382.151" font-family="Times,serif" font-size="14.00">Equipment List</text>
</g>
<!-- Equipment List&#45;&gt;Room -->
<g id="edge18" class="edge"><title>Equipment List&#45;&gt;Room</title>
<path fill="none" stroke="black" d="M953.741,-385.851C933.537,-385.851 910.697,-385.851 892.062,-385.851"/>
<polygon fill="black" stroke="black" points="891.907,-382.351 881.907,-385.851 891.907,-389.351 891.907,-382.351"/>
<text text-anchor="middle" x="922.902" y="-374.651" font-family="Times,serif" font-size="14.00">is in room</text>
</g>
<!-- Equipment Type -->
<g id="node18" class="node"><title>Equipment Type</title>
<ellipse fill="none" stroke="black" cx="1196.4" cy="-385.851" rx="69.5877" ry="18"/>
<text text-anchor="middle" x="1196.4" y="-382.151" font-family="Times,serif" font-size="14.00">Equipment Type</text>
</g>
<!-- Equipment List&#45;&gt;Equipment Type -->
<g id="edge17" class="edge"><title>Equipment List&#45;&gt;Equipment Type</title>
<path fill="none" stroke="black" d="M1055.06,-385.851C1073.88,-385.851 1095.7,-385.851 1116.49,-385.851"/>
<polygon fill="black" stroke="black" points="1116.59,-389.351 1126.59,-385.851 1116.59,-382.351 1116.59,-389.351"/>
<text text-anchor="middle" x="1085.78" y="-374.651" font-family="Times,serif" font-size="14.00">has equipment</text>
</g>
</g>
</svg>
