<?xml version="1.0" encoding="UTF-8" standalone="no"?>
<!DOCTYPE svg PUBLIC "-//W3C//DTD SVG 1.1//EN"
 "http://www.w3.org/Graphics/SVG/1.1/DTD/svg11.dtd">
<!-- Generated by graphviz version 2.38.0 (20140413.2041)
 -->
<!-- Title: G Pages: 1 -->
<svg width="1096pt" height="816pt"
 viewBox="0.00 0.00 1096.48 815.77" xmlns="http://www.w3.org/2000/svg" xmlns:xlink="http://www.w3.org/1999/xlink">
<g id="graph0" class="graph" transform="scale(1 1) rotate(0) translate(4 811.766)">
<title>G</title>
<polygon fill="white" stroke="none" points="-4,4 -4,-811.766 1092.48,-811.766 1092.48,4 -4,4"/>
<!-- Talks -->
<g id="node1" class="node"><title>Talks</title>
<polygon fill="none" stroke="black" points="548.559,-113.085 494.559,-113.085 494.559,-77.085 548.559,-77.085 548.559,-113.085"/>
<text text-anchor="middle" x="521.559" y="-91.385" font-family="Times,serif" font-size="14.00">Talks</text>
</g>
<!-- Presentation ID -->
<g id="node7" class="node"><title>Presentation ID</title>
<ellipse fill="none" stroke="black" cx="521.559" cy="-285.259" rx="65.7887" ry="18"/>
<text text-anchor="middle" x="521.559" y="-281.559" font-family="Times,serif" font-size="14.00">Presentation ID</text>
</g>
<!-- Talks&#45;&gt;Presentation ID -->
<g id="edge1" class="edge"><title>Talks&#45;&gt;Presentation ID</title>
<path fill="none" stroke="black" d="M521.559,-113.32C521.559,-146.617 521.559,-217.467 521.559,-257.038"/>
<polygon fill="black" stroke="black" points="518.059,-257.08 521.559,-267.08 525.059,-257.08 518.059,-257.08"/>
<text text-anchor="middle" x="500.059" y="-188.979" font-family="Times,serif" font-size="14.00">Talk ID</text>
</g>
<!-- Time interval -->
<g id="node8" class="node"><title>Time interval</title>
<ellipse fill="none" stroke="black" cx="415.461" cy="-18" rx="59.2899" ry="18"/>
<text text-anchor="middle" x="415.461" y="-14.3" font-family="Times,serif" font-size="14.00">Time interval</text>
</g>
<!-- Talks&#45;&gt;Time interval -->
<g id="edge2" class="edge"><title>Talks&#45;&gt;Time interval</title>
<path fill="none" stroke="black" d="M512.88,-76.9409C501.726,-64.648 482.303,-49.0619 463.655,-36.7531"/>
<polygon fill="black" stroke="black" points="465.489,-33.7714 455.174,-31.3519 461.729,-39.6758 465.489,-33.7714"/>
<text text-anchor="middle" x="448.767" y="-45.647" font-family="Times,serif" font-size="14.00">Speaking time</text>
</g>
<!-- Talks&#45;&gt;Time interval -->
<g id="edge3" class="edge"><title>Talks&#45;&gt;Time interval</title>
<path fill="none" stroke="black" d="M494.407,-88.9076C474.451,-78.4479 448.286,-59.5764 431.485,-43.6083"/>
<polygon fill="black" stroke="black" points="433.564,-40.7303 424.057,-36.0523 428.571,-45.6374 433.564,-40.7303"/>
<text text-anchor="middle" x="423.946" y="-70.058" font-family="Times,serif" font-size="14.00">Question time</text>
</g>
<!-- Talks&#45;&gt;Time interval -->
<g id="edge4" class="edge"><title>Talks&#45;&gt;Time interval</title>
<path fill="none" stroke="black" d="M496.684,-77.012C481.8,-66.1985 462.749,-52.3567 446.838,-40.7969"/>
<polygon fill="black" stroke="black" points="448.516,-37.6896 438.368,-34.6432 444.401,-43.3527 448.516,-37.6896"/>
<text text-anchor="middle" x="500.761" y="-62.7044" font-family="Times,serif" font-size="14.00">Total time</text>
</g>
<!-- Title -->
<g id="node9" class="node"><title>Title</title>
<ellipse fill="none" stroke="black" cx="702.426" cy="-36.3179" rx="27.0966" ry="18"/>
<text text-anchor="middle" x="702.426" y="-32.6179" font-family="Times,serif" font-size="14.00">Title</text>
</g>
<!-- Talks&#45;&gt;Title -->
<g id="edge5" class="edge"><title>Talks&#45;&gt;Title</title>
<path fill="none" stroke="black" d="M548.637,-86.2869C580.478,-75.9412 633.377,-58.7533 668.075,-47.4791"/>
<polygon fill="black" stroke="black" points="669.352,-50.7444 677.781,-44.3255 667.189,-44.087 669.352,-50.7444"/>
<text text-anchor="middle" x="583.356" y="-70.683" font-family="Times,serif" font-size="14.00">Talk title</text>
</g>
<!-- Abstract -->
<g id="node10" class="node"><title>Abstract</title>
<ellipse fill="none" stroke="black" cx="702.426" cy="-344.026" rx="40.0939" ry="18"/>
<text text-anchor="middle" x="702.426" y="-340.326" font-family="Times,serif" font-size="14.00">Abstract</text>
</g>
<!-- Talks&#45;&gt;Abstract -->
<g id="edge6" class="edge"><title>Talks&#45;&gt;Abstract</title>
<path fill="none" stroke="black" d="M534.859,-113.39C566.709,-157.228 647.417,-268.313 683.953,-318.601"/>
<polygon fill="black" stroke="black" points="681.123,-320.66 689.833,-326.693 686.786,-316.546 681.123,-320.66"/>
<text text-anchor="middle" x="573.906" y="-219.796" font-family="Times,serif" font-size="14.00">Talk abstract</text>
</g>
<!-- Authors -->
<g id="node2" class="node"><title>Authors</title>
<polygon fill="none" stroke="black" points="204.902,-555.12 144.902,-555.12 144.902,-519.12 204.902,-519.12 204.902,-555.12"/>
<text text-anchor="middle" x="174.902" y="-533.42" font-family="Times,serif" font-size="14.00">Authors</text>
</g>
<!-- First name -->
<g id="node11" class="node"><title>First name</title>
<ellipse fill="none" stroke="black" cx="323.904" cy="-559.986" rx="48.9926" ry="18"/>
<text text-anchor="middle" x="323.904" y="-556.286" font-family="Times,serif" font-size="14.00">First name</text>
</g>
<!-- Authors&#45;&gt;First name -->
<g id="edge8" class="edge"><title>Authors&#45;&gt;First name</title>
<path fill="none" stroke="black" d="M205.055,-541.747C223.334,-544.552 247.214,-548.217 268.769,-551.525"/>
<polygon fill="black" stroke="black" points="268.388,-555.007 278.804,-553.065 269.45,-548.088 268.388,-555.007"/>
</g>
<!-- Last name -->
<g id="node12" class="node"><title>Last name</title>
<ellipse fill="none" stroke="black" cx="132.866" cy="-681.886" rx="48.1917" ry="18"/>
<text text-anchor="middle" x="132.866" y="-678.186" font-family="Times,serif" font-size="14.00">Last name</text>
</g>
<!-- Authors&#45;&gt;Last name -->
<g id="edge9" class="edge"><title>Authors&#45;&gt;Last name</title>
<path fill="none" stroke="black" d="M169.663,-555.162C162.489,-579.869 149.535,-624.481 141.068,-653.639"/>
<polygon fill="black" stroke="black" points="137.598,-653.037 138.171,-663.616 144.32,-654.989 137.598,-653.037"/>
</g>
<!-- email -->
<g id="node13" class="node"><title>email</title>
<ellipse fill="none" stroke="black" cx="30.5473" cy="-493.694" rx="30.5947" ry="18"/>
<text text-anchor="middle" x="30.5473" y="-489.994" font-family="Times,serif" font-size="14.00">email</text>
</g>
<!-- Authors&#45;&gt;email -->
<g id="edge10" class="edge"><title>Authors&#45;&gt;email</title>
<path fill="none" stroke="black" d="M144.641,-528.016C122.215,-521.27 91.5283,-512.039 67.6277,-504.849"/>
<polygon fill="black" stroke="black" points="68.4283,-501.435 57.8439,-501.905 66.4117,-508.138 68.4283,-501.435"/>
</g>
<!-- Posters -->
<g id="node3" class="node"><title>Posters</title>
<polygon fill="none" stroke="black" points="842.207,-208.172 786.207,-208.172 786.207,-172.172 842.207,-172.172 842.207,-208.172"/>
<text text-anchor="middle" x="814.207" y="-186.472" font-family="Times,serif" font-size="14.00">Posters</text>
</g>
<!-- Posters&#45;&gt;Presentation ID -->
<g id="edge13" class="edge"><title>Posters&#45;&gt;Presentation ID</title>
<path fill="none" stroke="black" d="M786.147,-199.289C737.26,-215.174 635.769,-248.15 573.669,-268.328"/>
<polygon fill="black" stroke="black" points="572.483,-265.033 564.054,-271.452 574.646,-271.69 572.483,-265.033"/>
<text text-anchor="middle" x="653.908" y="-237.609" font-family="Times,serif" font-size="14.00">Poster ID</text>
</g>
<!-- Posters&#45;&gt;Title -->
<g id="edge16" class="edge"><title>Posters&#45;&gt;Title</title>
<path fill="none" stroke="black" d="M800.945,-171.919C780.858,-144.271 742.683,-91.7277 720.207,-60.7921"/>
<polygon fill="black" stroke="black" points="723.021,-58.7112 714.312,-52.6783 717.358,-62.8257 723.021,-58.7112"/>
</g>
<!-- Posters&#45;&gt;Abstract -->
<g id="edge17" class="edge"><title>Posters&#45;&gt;Abstract</title>
<path fill="none" stroke="black" d="M800.945,-208.425C781.069,-235.782 743.485,-287.513 720.922,-318.568"/>
<polygon fill="black" stroke="black" points="718.03,-316.594 714.984,-326.741 723.693,-320.708 718.03,-316.594"/>
</g>
<!-- Board No -->
<g id="node14" class="node"><title>Board No</title>
<ellipse fill="none" stroke="black" cx="931.46" cy="-94.8225" rx="45.4919" ry="18"/>
<text text-anchor="middle" x="931.46" y="-91.1225" font-family="Times,serif" font-size="14.00">Board No</text>
</g>
<!-- Posters&#45;&gt;Board No -->
<g id="edge14" class="edge"><title>Posters&#45;&gt;Board No</title>
<path fill="none" stroke="black" d="M836.537,-172.013C855.459,-156.626 882.696,-134.477 903.145,-117.848"/>
<polygon fill="black" stroke="black" points="905.622,-120.345 911.172,-111.321 901.205,-114.914 905.622,-120.345"/>
</g>
<!-- Date and time -->
<g id="node15" class="node"><title>Date and time</title>
<ellipse fill="none" stroke="black" cx="936.111" cy="-270.634" rx="61.1893" ry="18"/>
<text text-anchor="middle" x="936.111" y="-266.934" font-family="Times,serif" font-size="14.00">Date and time</text>
</g>
<!-- Posters&#45;&gt;Date and time -->
<g id="edge15" class="edge"><title>Posters&#45;&gt;Date and time</title>
<path fill="none" stroke="black" d="M841.565,-208.229C859.584,-220.123 883.299,-235.776 902.47,-248.43"/>
<polygon fill="black" stroke="black" points="900.648,-251.421 910.922,-254.008 904.504,-245.578 900.648,-251.421"/>
</g>
<!-- Room -->
<g id="node4" class="node"><title>Room</title>
<polygon fill="none" stroke="black" points="901.435,-641.172 847.435,-641.172 847.435,-605.172 901.435,-605.172 901.435,-641.172"/>
<text text-anchor="middle" x="874.435" y="-619.472" font-family="Times,serif" font-size="14.00">Room</text>
</g>
<!-- has screen -->
<g id="node16" class="node"><title>has screen</title>
<ellipse fill="none" stroke="black" cx="1041.03" cy="-623.172" rx="47.3916" ry="18"/>
<text text-anchor="middle" x="1041.03" y="-619.472" font-family="Times,serif" font-size="14.00">has screen</text>
</g>
<!-- Room&#45;&gt;has screen -->
<g id="edge18" class="edge"><title>Room&#45;&gt;has screen</title>
<path fill="none" stroke="black" d="M901.572,-623.172C923.661,-623.172 955.613,-623.172 983.361,-623.172"/>
<polygon fill="black" stroke="black" points="983.368,-626.672 993.368,-623.172 983.368,-619.672 983.368,-626.672"/>
</g>
<!-- has microphone -->
<g id="node17" class="node"><title>has microphone</title>
<ellipse fill="none" stroke="black" cx="874.11" cy="-789.766" rx="67.6881" ry="18"/>
<text text-anchor="middle" x="874.11" y="-786.066" font-family="Times,serif" font-size="14.00">has microphone</text>
</g>
<!-- Room&#45;&gt;has microphone -->
<g id="edge19" class="edge"><title>Room&#45;&gt;has microphone</title>
<path fill="none" stroke="black" d="M874.4,-641.318C874.344,-670.234 874.233,-727 874.166,-761.343"/>
<polygon fill="black" stroke="black" points="870.665,-761.636 874.146,-771.642 877.665,-761.649 870.665,-761.636"/>
</g>
<!-- has remote -->
<g id="node18" class="node"><title>has remote</title>
<ellipse fill="none" stroke="black" cx="707.873" cy="-619.922" rx="50.0912" ry="18"/>
<text text-anchor="middle" x="707.873" y="-616.222" font-family="Times,serif" font-size="14.00">has remote</text>
</g>
<!-- Room&#45;&gt;has remote -->
<g id="edge20" class="edge"><title>Room&#45;&gt;has remote</title>
<path fill="none" stroke="black" d="M847.304,-622.643C825.888,-622.225 795.199,-621.626 768.063,-621.097"/>
<polygon fill="black" stroke="black" points="767.929,-617.594 757.863,-620.898 767.793,-624.592 767.929,-617.594"/>
</g>
<!-- has whiteboard -->
<g id="node19" class="node"><title>has whiteboard</title>
<ellipse fill="none" stroke="black" cx="877.36" cy="-456.604" rx="64.189" ry="18"/>
<text text-anchor="middle" x="877.36" y="-452.904" font-family="Times,serif" font-size="14.00">has whiteboard</text>
</g>
<!-- Room&#45;&gt;has whiteboard -->
<g id="edge21" class="edge"><title>Room&#45;&gt;has whiteboard</title>
<path fill="none" stroke="black" d="M874.754,-605.029C875.262,-576.117 876.258,-519.36 876.861,-485.022"/>
<polygon fill="black" stroke="black" points="880.366,-484.784 877.042,-474.724 873.367,-484.661 880.366,-484.784"/>
</g>
<!-- Chairs -->
<g id="node5" class="node"><title>Chairs</title>
<polygon fill="none" stroke="black" points="226.199,-406.345 172.199,-406.345 172.199,-370.345 226.199,-370.345 226.199,-406.345"/>
<text text-anchor="middle" x="199.199" y="-384.645" font-family="Times,serif" font-size="14.00">Chairs</text>
</g>
<!-- Chairs&#45;&gt;Authors -->
<g id="edge12" class="edge"><title>Chairs&#45;&gt;Authors</title>
<path fill="none" stroke="black" d="M196.22,-406.588C192.049,-432.13 184.429,-478.787 179.52,-508.849"/>
<polygon fill="black" stroke="black" points="176.064,-508.295 177.906,-518.728 182.972,-509.423 176.064,-508.295"/>
<text text-anchor="middle" x="155.87" y="-461.518" font-family="Times,serif" font-size="14.00">Chair name</text>
</g>
<!-- Author Lists -->
<g id="node6" class="node"><title>Author Lists</title>
<polygon fill="none" stroke="black" points="471.427,-370.56 386.427,-370.56 386.427,-334.56 471.427,-334.56 471.427,-370.56"/>
<text text-anchor="middle" x="428.927" y="-348.86" font-family="Times,serif" font-size="14.00">Author Lists</text>
</g>
<!-- Author Lists&#45;&gt;Authors -->
<g id="edge7" class="edge"><title>Author Lists&#45;&gt;Authors</title>
<path fill="none" stroke="black" d="M404.107,-370.593C358.105,-404.016 259.598,-475.585 207.989,-513.081"/>
<polygon fill="black" stroke="black" points="205.856,-510.305 199.823,-519.014 209.97,-515.968 205.856,-510.305"/>
<text text-anchor="middle" x="280.048" y="-445.637" font-family="Times,serif" font-size="14.00">an author</text>
</g>
<!-- Author Lists&#45;&gt;Presentation ID -->
<g id="edge11" class="edge"><title>Author Lists&#45;&gt;Presentation ID</title>
<path fill="none" stroke="black" d="M453.751,-334.525C464.877,-326.441 478.129,-316.813 489.954,-308.222"/>
<polygon fill="black" stroke="black" points="492.228,-310.896 498.261,-302.186 488.113,-305.233 492.228,-310.896"/>
<text text-anchor="middle" x="440.352" y="-310.173" font-family="Times,serif" font-size="14.00">is author of</text>
</g>
</g>
</svg>
