<?xml version="1.0" encoding="UTF-8" standalone="no"?>
<!DOCTYPE svg PUBLIC "-//W3C//DTD SVG 1.1//EN"
 "http://www.w3.org/Graphics/SVG/1.1/DTD/svg11.dtd">
<!-- Generated by graphviz version 2.38.0 (20140413.2041)
 -->
<!-- Title: G Pages: 1 -->
<svg width="1930pt" height="1343pt"
 viewBox="0.00 0.00 1929.66 1343.44" xmlns="http://www.w3.org/2000/svg" xmlns:xlink="http://www.w3.org/1999/xlink">
<g id="graph0" class="graph" transform="scale(1 1) rotate(0) translate(4 1339.44)">
<title>G</title>
<polygon fill="white" stroke="none" points="-4,4 -4,-1339.44 1925.66,-1339.44 1925.66,4 -4,4"/>
<!-- Talks -->
<g id="node1" class="node"><title>Talks</title>
<polygon fill="none" stroke="black" points="1058.14,-831.251 1004.14,-831.251 1004.14,-795.251 1058.14,-795.251 1058.14,-831.251"/>
<text text-anchor="middle" x="1031.14" y="-809.551" font-family="Times,serif" font-size="14.00">Talks</text>
</g>
<!-- Microsymposium -->
<g id="node6" class="node"><title>Microsymposium</title>
<polygon fill="none" stroke="black" points="894.014,-831.251 780.014,-831.251 780.014,-795.251 894.014,-795.251 894.014,-831.251"/>
<text text-anchor="middle" x="837.014" y="-809.551" font-family="Times,serif" font-size="14.00">Microsymposium</text>
</g>
<!-- Talks&#45;&gt;Microsymposium -->
<g id="edge7" class="edge"><title>Talks&#45;&gt;Microsymposium</title>
<path fill="none" stroke="black" d="M1003.74,-813.251C978.07,-813.251 938.666,-813.251 904.608,-813.251"/>
<polygon fill="black" stroke="black" points="904.232,-809.751 894.232,-813.251 904.232,-816.751 904.232,-809.751"/>
</g>
<!-- Presentation ID -->
<g id="node12" class="node"><title>Presentation ID</title>
<ellipse fill="none" stroke="black" cx="1128.2" cy="-981.369" rx="65.7887" ry="18"/>
<text text-anchor="middle" x="1128.2" y="-977.669" font-family="Times,serif" font-size="14.00">Presentation ID</text>
</g>
<!-- Talks&#45;&gt;Presentation ID -->
<g id="edge8" class="edge"><title>Talks&#45;&gt;Presentation ID</title>
<path fill="none" stroke="black" d="M1041.71,-831.562C1058.87,-861.278 1092.85,-920.137 1112.73,-954.568"/>
<polygon fill="black" stroke="black" points="1109.91,-956.677 1117.94,-963.587 1115.97,-953.177 1109.91,-956.677"/>
</g>
<!-- Speaking time -->
<g id="node13" class="node"><title>Speaking time</title>
<ellipse fill="none" stroke="black" cx="1076.02" cy="-378.284" rx="61.99" ry="18"/>
<text text-anchor="middle" x="1076.02" y="-374.584" font-family="Times,serif" font-size="14.00">Speaking time</text>
</g>
<!-- Talks&#45;&gt;Speaking time -->
<g id="edge9" class="edge"><title>Talks&#45;&gt;Speaking time</title>
<path fill="none" stroke="black" d="M1033.01,-795.115C1040,-727.41 1064.58,-489.119 1073.09,-406.636"/>
<polygon fill="black" stroke="black" points="1076.59,-406.804 1074.14,-396.498 1069.63,-406.086 1076.59,-406.804"/>
</g>
<!-- Question time -->
<g id="node14" class="node"><title>Question time</title>
<ellipse fill="none" stroke="black" cx="1255.6" cy="-451.766" rx="61.1893" ry="18"/>
<text text-anchor="middle" x="1255.6" y="-448.066" font-family="Times,serif" font-size="14.00">Question time</text>
</g>
<!-- Talks&#45;&gt;Question time -->
<g id="edge10" class="edge"><title>Talks&#45;&gt;Question time</title>
<path fill="none" stroke="black" d="M1042.58,-794.828C1079.52,-735.345 1195.7,-548.233 1239.07,-478.398"/>
<polygon fill="black" stroke="black" points="1242.15,-480.064 1244.45,-469.723 1236.2,-476.372 1242.15,-480.064"/>
</g>
<!-- Total time -->
<g id="node15" class="node"><title>Total time</title>
<ellipse fill="none" stroke="black" cx="1394.63" cy="-566.947" rx="48.1917" ry="18"/>
<text text-anchor="middle" x="1394.63" y="-563.247" font-family="Times,serif" font-size="14.00">Total time</text>
</g>
<!-- Talks&#45;&gt;Total time -->
<g id="edge11" class="edge"><title>Talks&#45;&gt;Total time</title>
<path fill="none" stroke="black" d="M1057.87,-795.14C1123.43,-750.713 1292.02,-636.479 1362.7,-588.586"/>
<polygon fill="black" stroke="black" points="1364.9,-591.322 1371.22,-582.815 1360.97,-585.527 1364.9,-591.322"/>
</g>
<!-- Title -->
<g id="node16" class="node"><title>Title</title>
<ellipse fill="none" stroke="black" cx="739.951" cy="-981.369" rx="27.0966" ry="18"/>
<text text-anchor="middle" x="739.951" y="-977.669" font-family="Times,serif" font-size="14.00">Title</text>
</g>
<!-- Talks&#45;&gt;Title -->
<g id="edge12" class="edge"><title>Talks&#45;&gt;Title</title>
<path fill="none" stroke="black" d="M1004.01,-828.916C949.307,-860.497 826.192,-931.578 769.523,-964.296"/>
<polygon fill="black" stroke="black" points="767.61,-961.359 760.7,-969.39 771.11,-967.421 767.61,-961.359"/>
</g>
<!-- Abstract -->
<g id="node17" class="node"><title>Abstract</title>
<ellipse fill="none" stroke="black" cx="837.014" cy="-1149.49" rx="40.0939" ry="18"/>
<text text-anchor="middle" x="837.014" y="-1145.79" font-family="Times,serif" font-size="14.00">Abstract</text>
</g>
<!-- Talks&#45;&gt;Abstract -->
<g id="edge13" class="edge"><title>Talks&#45;&gt;Abstract</title>
<path fill="none" stroke="black" d="M1020.7,-831.328C988.501,-887.103 890.579,-1056.71 852.445,-1122.76"/>
<polygon fill="black" stroke="black" points="849.236,-1121.32 847.267,-1131.73 855.298,-1124.82 849.236,-1121.32"/>
</g>
<!-- Authors -->
<g id="node2" class="node"><title>Authors</title>
<polygon fill="none" stroke="black" points="1784.46,-999.369 1724.46,-999.369 1724.46,-963.369 1784.46,-963.369 1784.46,-999.369"/>
<text text-anchor="middle" x="1754.46" y="-977.669" font-family="Times,serif" font-size="14.00">Authors</text>
</g>
<!-- First name -->
<g id="node18" class="node"><title>First name</title>
<ellipse fill="none" stroke="black" cx="1647.36" cy="-875.289" rx="48.9926" ry="18"/>
<text text-anchor="middle" x="1647.36" y="-871.589" font-family="Times,serif" font-size="14.00">First name</text>
</g>
<!-- Authors&#45;&gt;First name -->
<g id="edge15" class="edge"><title>Authors&#45;&gt;First name</title>
<path fill="none" stroke="black" d="M1735.8,-962.891C1718.03,-945.283 1691.16,-918.675 1671.7,-899.404"/>
<polygon fill="black" stroke="black" points="1673.95,-896.707 1664.39,-892.156 1669.03,-901.68 1673.95,-896.707"/>
</g>
<!-- Last name -->
<g id="node19" class="node"><title>Last name</title>
<ellipse fill="none" stroke="black" cx="1873.56" cy="-888.96" rx="48.1917" ry="18"/>
<text text-anchor="middle" x="1873.56" y="-885.26" font-family="Times,serif" font-size="14.00">Last name</text>
</g>
<!-- Authors&#45;&gt;Last name -->
<g id="edge16" class="edge"><title>Authors&#45;&gt;Last name</title>
<path fill="none" stroke="black" d="M1777.71,-963.332C1796.75,-948.559 1823.79,-927.575 1844.3,-911.66"/>
<polygon fill="black" stroke="black" points="1846.61,-914.296 1852.37,-905.401 1842.32,-908.766 1846.61,-914.296"/>
</g>
<!-- email -->
<g id="node20" class="node"><title>email</title>
<ellipse fill="none" stroke="black" cx="1845.72" cy="-1101.35" rx="30.5947" ry="18"/>
<text text-anchor="middle" x="1845.72" y="-1097.65" font-family="Times,serif" font-size="14.00">email</text>
</g>
<!-- Authors&#45;&gt;email -->
<g id="edge17" class="edge"><title>Authors&#45;&gt;email</title>
<path fill="none" stroke="black" d="M1768.32,-999.592C1783.97,-1020.17 1809.52,-1053.76 1826.95,-1076.68"/>
<polygon fill="black" stroke="black" points="1824.36,-1079.05 1833.2,-1084.89 1829.93,-1074.81 1824.36,-1079.05"/>
</g>
<!-- Posters -->
<g id="node3" class="node"><title>Posters</title>
<polygon fill="none" stroke="black" points="1059.14,-1167.49 1003.14,-1167.49 1003.14,-1131.49 1059.14,-1131.49 1059.14,-1167.49"/>
<text text-anchor="middle" x="1031.14" y="-1145.79" font-family="Times,serif" font-size="14.00">Posters</text>
</g>
<!-- Posters&#45;&gt;Microsymposium -->
<g id="edge6" class="edge"><title>Posters&#45;&gt;Microsymposium</title>
<path fill="none" stroke="black" d="M1020.7,-1131.41C988.576,-1075.76 891.035,-906.818 852.712,-840.441"/>
<polygon fill="black" stroke="black" points="855.534,-838.328 847.503,-831.418 849.472,-841.828 855.534,-838.328"/>
</g>
<!-- Posters&#45;&gt;Presentation ID -->
<g id="edge20" class="edge"><title>Posters&#45;&gt;Presentation ID</title>
<path fill="none" stroke="black" d="M1041.71,-1131.18C1058.87,-1101.46 1092.85,-1042.6 1112.73,-1008.17"/>
<polygon fill="black" stroke="black" points="1115.97,-1009.56 1117.94,-999.151 1109.91,-1006.06 1115.97,-1009.56"/>
</g>
<!-- Posters&#45;&gt;Title -->
<g id="edge23" class="edge"><title>Posters&#45;&gt;Title</title>
<path fill="none" stroke="black" d="M1002.96,-1133.21C947.657,-1101.29 825.452,-1030.73 769.26,-998.291"/>
<polygon fill="black" stroke="black" points="770.923,-995.209 760.512,-993.24 767.423,-1001.27 770.923,-995.209"/>
</g>
<!-- Posters&#45;&gt;Abstract -->
<g id="edge24" class="edge"><title>Posters&#45;&gt;Abstract</title>
<path fill="none" stroke="black" d="M1002.91,-1149.49C972.731,-1149.49 924.254,-1149.49 887.479,-1149.49"/>
<polygon fill="black" stroke="black" points="887.442,-1145.99 877.442,-1149.49 887.442,-1152.99 887.442,-1145.99"/>
</g>
<!-- Board No -->
<g id="node21" class="node"><title>Board No</title>
<ellipse fill="none" stroke="black" cx="1185.85" cy="-1225.73" rx="45.4919" ry="18"/>
<text text-anchor="middle" x="1185.85" y="-1222.03" font-family="Times,serif" font-size="14.00">Board No</text>
</g>
<!-- Posters&#45;&gt;Board No -->
<g id="edge21" class="edge"><title>Posters&#45;&gt;Board No</title>
<path fill="none" stroke="black" d="M1059.16,-1163.29C1084,-1175.54 1120.51,-1193.53 1147.96,-1207.06"/>
<polygon fill="black" stroke="black" points="1146.74,-1210.36 1157.26,-1211.64 1149.83,-1204.08 1146.74,-1210.36"/>
</g>
<!-- Date and time -->
<g id="node22" class="node"><title>Date and time</title>
<ellipse fill="none" stroke="black" cx="1034.85" cy="-1317.44" rx="61.1893" ry="18"/>
<text text-anchor="middle" x="1034.85" y="-1313.74" font-family="Times,serif" font-size="14.00">Date and time</text>
</g>
<!-- Posters&#45;&gt;Date and time -->
<g id="edge22" class="edge"><title>Posters&#45;&gt;Date and time</title>
<path fill="none" stroke="black" d="M1031.54,-1167.78C1032.19,-1197.01 1033.46,-1254.47 1034.22,-1289.06"/>
<polygon fill="black" stroke="black" points="1030.73,-1289.51 1034.45,-1299.43 1037.73,-1289.35 1030.73,-1289.51"/>
</g>
<!-- Room -->
<g id="node4" class="node"><title>Room</title>
<polygon fill="none" stroke="black" points="249.966,-349.345 195.966,-349.345 195.966,-313.345 249.966,-313.345 249.966,-349.345"/>
<text text-anchor="middle" x="222.966" y="-327.645" font-family="Times,serif" font-size="14.00">Room</text>
</g>
<!-- has screen -->
<g id="node23" class="node"><title>has screen</title>
<ellipse fill="none" stroke="black" cx="287.765" cy="-495.118" rx="47.3916" ry="18"/>
<text text-anchor="middle" x="287.765" y="-491.418" font-family="Times,serif" font-size="14.00">has screen</text>
</g>
<!-- Room&#45;&gt;has screen -->
<g id="edge25" class="edge"><title>Room&#45;&gt;has screen</title>
<path fill="none" stroke="black" d="M230.148,-349.497C241.436,-378.026 263.412,-433.567 276.72,-467.203"/>
<polygon fill="black" stroke="black" points="273.617,-468.874 280.551,-476.885 280.126,-466.298 273.617,-468.874"/>
</g>
<!-- has microphone -->
<g id="node24" class="node"><title>has microphone</title>
<ellipse fill="none" stroke="black" cx="111.508" cy="-467.719" rx="67.6881" ry="18"/>
<text text-anchor="middle" x="111.508" y="-464.019" font-family="Times,serif" font-size="14.00">has microphone</text>
</g>
<!-- Room&#45;&gt;has microphone -->
<g id="edge26" class="edge"><title>Room&#45;&gt;has microphone</title>
<path fill="none" stroke="black" d="M208.165,-349.454C188.739,-373.224 154.524,-415.087 132.448,-442.099"/>
<polygon fill="black" stroke="black" points="129.634,-440.01 126.016,-449.968 135.054,-444.44 129.634,-440.01"/>
</g>
<!-- has remote -->
<g id="node25" class="node"><title>has remote</title>
<ellipse fill="none" stroke="black" cx="50.0456" cy="-297.888" rx="50.0912" ry="18"/>
<text text-anchor="middle" x="50.0456" y="-294.188" font-family="Times,serif" font-size="14.00">has remote</text>
</g>
<!-- Room&#45;&gt;has remote -->
<g id="edge27" class="edge"><title>Room&#45;&gt;has remote</title>
<path fill="none" stroke="black" d="M195.947,-326.117C171.54,-321.395 134.883,-314.302 104.419,-308.408"/>
<polygon fill="black" stroke="black" points="104.835,-304.924 94.3523,-306.46 103.505,-311.796 104.835,-304.924"/>
</g>
<!-- has whiteboard -->
<g id="node26" class="node"><title>has whiteboard</title>
<ellipse fill="none" stroke="black" cx="167.327" cy="-164.237" rx="64.189" ry="18"/>
<text text-anchor="middle" x="167.327" y="-160.537" font-family="Times,serif" font-size="14.00">has whiteboard</text>
</g>
<!-- Room&#45;&gt;has whiteboard -->
<g id="edge28" class="edge"><title>Room&#45;&gt;has whiteboard</title>
<path fill="none" stroke="black" d="M216.906,-313.143C207.181,-283.935 188.025,-226.401 176.58,-192.029"/>
<polygon fill="black" stroke="black" points="179.775,-190.545 173.295,-182.163 173.134,-192.756 179.775,-190.545"/>
</g>
<!-- seating capacity -->
<g id="node27" class="node"><title>seating capacity</title>
<ellipse fill="none" stroke="black" cx="353.705" cy="-213.327" rx="67.6881" ry="18"/>
<text text-anchor="middle" x="353.705" y="-209.627" font-family="Times,serif" font-size="14.00">seating capacity</text>
</g>
<!-- Room&#45;&gt;seating capacity -->
<g id="edge29" class="edge"><title>Room&#45;&gt;seating capacity</title>
<path fill="none" stroke="black" d="M243.107,-313.163C265.47,-292.976 301.685,-260.286 326.542,-237.847"/>
<polygon fill="black" stroke="black" points="329.104,-240.249 334.182,-230.951 324.413,-235.053 329.104,-240.249"/>
</g>
<!-- Number -->
<g id="node28" class="node"><title>Number</title>
<ellipse fill="none" stroke="black" cx="391.886" cy="-381.213" rx="40.0939" ry="18"/>
<text text-anchor="middle" x="391.886" y="-377.513" font-family="Times,serif" font-size="14.00">Number</text>
</g>
<!-- Room&#45;&gt;Number -->
<g id="edge30" class="edge"><title>Room&#45;&gt;Number</title>
<path fill="none" stroke="black" d="M250.106,-339.357C276.614,-347.183 317.386,-359.219 348.415,-368.379"/>
<polygon fill="black" stroke="black" points="347.535,-371.769 358.116,-371.243 349.517,-365.055 347.535,-371.769"/>
</g>
<!-- Chairs -->
<g id="node5" class="node"><title>Chairs</title>
<polygon fill="none" stroke="black" points="1674.36,-1105.45 1620.36,-1105.45 1620.36,-1069.45 1674.36,-1069.45 1674.36,-1105.45"/>
<text text-anchor="middle" x="1647.36" y="-1083.75" font-family="Times,serif" font-size="14.00">Chairs</text>
</g>
<!-- Chairs&#45;&gt;Authors -->
<g id="edge19" class="edge"><title>Chairs&#45;&gt;Authors</title>
<path fill="none" stroke="black" d="M1666.01,-1068.97C1683.37,-1051.78 1709.38,-1026.02 1728.71,-1006.87"/>
<polygon fill="black" stroke="black" points="1731.38,-1009.16 1736.02,-999.635 1726.45,-1004.19 1731.38,-1009.16"/>
</g>
<!-- Microsymposium&#45;&gt;Room -->
<g id="edge5" class="edge"><title>Microsymposium&#45;&gt;Room</title>
<path fill="none" stroke="black" d="M814.063,-795.239C719.742,-721.216 361.856,-440.346 253.948,-355.659"/>
<polygon fill="black" stroke="black" points="256.059,-352.867 246.032,-349.447 251.738,-358.374 256.059,-352.867"/>
</g>
<!-- MS Title -->
<g id="node8" class="node"><title>MS Title</title>
<ellipse fill="none" stroke="black" cx="507.488" cy="-117.521" rx="42.4939" ry="18"/>
<text text-anchor="middle" x="507.488" y="-113.821" font-family="Times,serif" font-size="14.00">MS Title</text>
</g>
<!-- Microsymposium&#45;&gt;MS Title -->
<g id="edge1" class="edge"><title>Microsymposium&#45;&gt;MS Title</title>
<path fill="none" stroke="black" d="M828.369,-794.999C783.178,-699.586 574.12,-258.201 520.203,-144.365"/>
<polygon fill="black" stroke="black" points="523.335,-142.802 515.891,-135.263 517.009,-145.799 523.335,-142.802"/>
</g>
<!-- MS ID -->
<g id="node9" class="node"><title>MS ID</title>
<ellipse fill="none" stroke="black" cx="646.593" cy="-61.8235" rx="35.9954" ry="18"/>
<text text-anchor="middle" x="646.593" y="-58.1235" font-family="Times,serif" font-size="14.00">MS ID</text>
</g>
<!-- Microsymposium&#45;&gt;MS ID -->
<g id="edge2" class="edge"><title>Microsymposium&#45;&gt;MS ID</title>
<path fill="none" stroke="black" d="M832.401,-795.048C807.04,-694.969 684.592,-211.77 653.688,-89.8204"/>
<polygon fill="black" stroke="black" points="656.995,-88.6201 651.145,-79.7863 650.209,-90.3397 656.995,-88.6201"/>
</g>
<!-- Date -->
<g id="node10" class="node"><title>Date</title>
<ellipse fill="none" stroke="black" cx="777.884" cy="-30.6775" rx="27.0966" ry="18"/>
<text text-anchor="middle" x="777.884" y="-26.9775" font-family="Times,serif" font-size="14.00">Date</text>
</g>
<!-- Microsymposium&#45;&gt;Date -->
<g id="edge3" class="edge"><title>Microsymposium&#45;&gt;Date</title>
<path fill="none" stroke="black" d="M835.639,-795.059C827.872,-692.259 789.488,-184.252 780.005,-58.7494"/>
<polygon fill="black" stroke="black" points="783.494,-58.4779 779.251,-48.7701 776.514,-59.0054 783.494,-58.4779"/>
</g>
<!-- Start time -->
<g id="node11" class="node"><title>Start time</title>
<ellipse fill="none" stroke="black" cx="922.635" cy="-18" rx="46.2923" ry="18"/>
<text text-anchor="middle" x="922.635" y="-14.3" font-family="Times,serif" font-size="14.00">Start time</text>
</g>
<!-- Microsymposium&#45;&gt;Start time -->
<g id="edge4" class="edge"><title>Microsymposium&#45;&gt;Start time</title>
<path fill="none" stroke="black" d="M838.963,-795.147C850.126,-691.471 905.919,-173.256 919.602,-46.1711"/>
<polygon fill="black" stroke="black" points="923.098,-46.3931 920.689,-36.0758 916.138,-45.6437 923.098,-46.3931"/>
</g>
<!-- Author Lists -->
<g id="node7" class="node"><title>Author Lists</title>
<polygon fill="none" stroke="black" points="1482.97,-999.369 1397.97,-999.369 1397.97,-963.369 1482.97,-963.369 1482.97,-999.369"/>
<text text-anchor="middle" x="1440.47" y="-977.669" font-family="Times,serif" font-size="14.00">Author Lists</text>
</g>
<!-- Author Lists&#45;&gt;Authors -->
<g id="edge14" class="edge"><title>Author Lists&#45;&gt;Authors</title>
<path fill="none" stroke="black" d="M1483.14,-981.369C1543.88,-981.369 1654.49,-981.369 1714,-981.369"/>
<polygon fill="black" stroke="black" points="1714.14,-984.869 1724.14,-981.369 1714.14,-977.869 1714.14,-984.869"/>
</g>
<!-- Author Lists&#45;&gt;Presentation ID -->
<g id="edge18" class="edge"><title>Author Lists&#45;&gt;Presentation ID</title>
<path fill="none" stroke="black" d="M1397.7,-981.369C1348.04,-981.369 1265.19,-981.369 1204.43,-981.369"/>
<polygon fill="black" stroke="black" points="1204.12,-977.869 1194.12,-981.369 1204.12,-984.869 1204.12,-977.869"/>
</g>
</g>
</svg>
