<?xml version="1.0" encoding="UTF-8" standalone="no"?>
<!DOCTYPE svg PUBLIC "-//W3C//DTD SVG 1.1//EN"
 "http://www.w3.org/Graphics/SVG/1.1/DTD/svg11.dtd">
<!-- Generated by graphviz version 2.38.0 (20140413.2041)
 -->
<!-- Title: G Pages: 1 -->
<svg width="1672pt" height="1061pt"
 viewBox="0.00 0.00 1671.60 1060.70" xmlns="http://www.w3.org/2000/svg" xmlns:xlink="http://www.w3.org/1999/xlink">
<g id="graph0" class="graph" transform="scale(1 1) rotate(0) translate(4 1056.7)">
<title>G</title>
<polygon fill="white" stroke="none" points="-4,4 -4,-1056.7 1667.6,-1056.7 1667.6,4 -4,4"/>
<!-- Talks -->
<g id="node1" class="node"><title>Talks</title>
<polygon fill="none" stroke="black" points="572.345,-464.164 518.345,-464.164 518.345,-428.164 572.345,-428.164 572.345,-464.164"/>
<text text-anchor="middle" x="545.345" y="-442.464" font-family="Times,serif" font-size="14.00">Talks</text>
</g>
<!-- Authors -->
<g id="node2" class="node"><title>Authors</title>
<polygon fill="none" stroke="black" points="456.934,-582.576 396.934,-582.576 396.934,-546.576 456.934,-546.576 456.934,-582.576"/>
<text text-anchor="middle" x="426.934" y="-560.876" font-family="Times,serif" font-size="14.00">Authors</text>
</g>
<!-- Talks&#45;&gt;Authors -->
<g id="edge9" class="edge"><title>Talks&#45;&gt;Authors</title>
<path fill="none" stroke="black" d="M527.103,-464.407C507.053,-484.457 474.709,-516.8 452.219,-539.29"/>
<polygon fill="black" stroke="black" points="449.599,-536.961 445.002,-546.507 454.548,-541.911 449.599,-536.961"/>
</g>
<!-- Presentation ID -->
<g id="node11" class="node"><title>Presentation ID</title>
<ellipse fill="none" stroke="black" cx="166.458" cy="-169.886" rx="65.7887" ry="18"/>
<text text-anchor="middle" x="166.458" y="-166.186" font-family="Times,serif" font-size="14.00">Presentation ID</text>
</g>
<!-- Talks&#45;&gt;Presentation ID -->
<g id="edge8" class="edge"><title>Talks&#45;&gt;Presentation ID</title>
<path fill="none" stroke="black" d="M520.485,-428.037C454.04,-379.586 272.367,-247.114 198.414,-193.188"/>
<polygon fill="black" stroke="black" points="200.086,-190.076 189.944,-187.012 195.962,-195.732 200.086,-190.076"/>
</g>
<!-- Speaking time -->
<g id="node12" class="node"><title>Speaking time</title>
<ellipse fill="none" stroke="black" cx="332.017" cy="-60.7637" rx="61.99" ry="18"/>
<text text-anchor="middle" x="332.017" y="-57.0637" font-family="Times,serif" font-size="14.00">Speaking time</text>
</g>
<!-- Talks&#45;&gt;Speaking time -->
<g id="edge10" class="edge"><title>Talks&#45;&gt;Speaking time</title>
<path fill="none" stroke="black" d="M535.342,-428.093C501.049,-366.138 388.098,-162.08 347.076,-87.9683"/>
<polygon fill="black" stroke="black" points="349.904,-85.8505 341.999,-78.7964 343.78,-89.2405 349.904,-85.8505"/>
</g>
<!-- Question time -->
<g id="node13" class="node"><title>Question time</title>
<ellipse fill="none" stroke="black" cx="521.052" cy="-18" rx="61.1893" ry="18"/>
<text text-anchor="middle" x="521.052" y="-14.3" font-family="Times,serif" font-size="14.00">Question time</text>
</g>
<!-- Talks&#45;&gt;Question time -->
<g id="edge11" class="edge"><title>Talks&#45;&gt;Question time</title>
<path fill="none" stroke="black" d="M544.317,-428.04C540.522,-361.167 527.29,-127.943 522.663,-46.4048"/>
<polygon fill="black" stroke="black" points="526.155,-46.1539 522.094,-36.3682 519.166,-46.5505 526.155,-46.1539"/>
</g>
<!-- Total time -->
<g id="node14" class="node"><title>Total time</title>
<ellipse fill="none" stroke="black" cx="700.093" cy="-39.8013" rx="48.1917" ry="18"/>
<text text-anchor="middle" x="700.093" y="-36.1013" font-family="Times,serif" font-size="14.00">Total time</text>
</g>
<!-- Talks&#45;&gt;Total time -->
<g id="edge12" class="edge"><title>Talks&#45;&gt;Total time</title>
<path fill="none" stroke="black" d="M552.295,-427.914C576.891,-363.326 659.92,-145.294 689.51,-67.5917"/>
<polygon fill="black" stroke="black" points="692.874,-68.5919 693.162,-58.001 686.332,-66.1007 692.874,-68.5919"/>
</g>
<!-- Title -->
<g id="node15" class="node"><title>Title</title>
<ellipse fill="none" stroke="black" cx="834.182" cy="-99.9164" rx="27.0966" ry="18"/>
<text text-anchor="middle" x="834.182" y="-96.2164" font-family="Times,serif" font-size="14.00">Title</text>
</g>
<!-- Talks&#45;&gt;Title -->
<g id="edge13" class="edge"><title>Talks&#45;&gt;Title</title>
<path fill="none" stroke="black" d="M560.467,-428.036C608.889,-369.99 760.108,-188.713 814.47,-123.546"/>
<polygon fill="black" stroke="black" points="817.18,-125.762 820.898,-115.841 811.805,-121.278 817.18,-125.762"/>
</g>
<!-- Abstract -->
<g id="node16" class="node"><title>Abstract</title>
<ellipse fill="none" stroke="black" cx="942.105" cy="-187.857" rx="40.0939" ry="18"/>
<text text-anchor="middle" x="942.105" y="-184.157" font-family="Times,serif" font-size="14.00">Abstract</text>
</g>
<!-- Talks&#45;&gt;Abstract -->
<g id="edge14" class="edge"><title>Talks&#45;&gt;Abstract</title>
<path fill="none" stroke="black" d="M572.616,-428.41C643.78,-382.079 834.83,-257.698 910.558,-208.396"/>
<polygon fill="black" stroke="black" points="912.735,-211.155 919.206,-202.766 908.916,-205.289 912.735,-211.155"/>
</g>
<!-- First name -->
<g id="node17" class="node"><title>First name</title>
<ellipse fill="none" stroke="black" cx="91.1048" cy="-771.758" rx="48.9926" ry="18"/>
<text text-anchor="middle" x="91.1048" y="-768.058" font-family="Times,serif" font-size="14.00">First name</text>
</g>
<!-- Authors&#45;&gt;First name -->
<g id="edge15" class="edge"><title>Authors&#45;&gt;First name</title>
<path fill="none" stroke="black" d="M397.719,-582.599C335.687,-620.868 191.112,-710.06 125.085,-750.794"/>
<polygon fill="black" stroke="black" points="122.98,-747.981 116.307,-756.21 126.655,-753.938 122.98,-747.981"/>
</g>
<!-- Last name -->
<g id="node18" class="node"><title>Last name</title>
<ellipse fill="none" stroke="black" cx="48.0957" cy="-609.317" rx="48.1917" ry="18"/>
<text text-anchor="middle" x="48.0957" y="-605.617" font-family="Times,serif" font-size="14.00">Last name</text>
</g>
<!-- Authors&#45;&gt;Last name -->
<g id="edge16" class="edge"><title>Authors&#45;&gt;Last name</title>
<path fill="none" stroke="black" d="M396.89,-568.124C333.535,-575.606 185.396,-593.102 104.042,-602.71"/>
<polygon fill="black" stroke="black" points="103.503,-599.249 93.9821,-603.898 104.324,-606.201 103.503,-599.249"/>
</g>
<!-- email -->
<g id="node19" class="node"><title>email</title>
<ellipse fill="none" stroke="black" cx="57.264" cy="-459.525" rx="30.5947" ry="18"/>
<text text-anchor="middle" x="57.264" y="-455.825" font-family="Times,serif" font-size="14.00">email</text>
</g>
<!-- Authors&#45;&gt;email -->
<g id="edge17" class="edge"><title>Authors&#45;&gt;email</title>
<path fill="none" stroke="black" d="M396.682,-555.979C329.488,-536.884 167.969,-490.985 94.6244,-470.142"/>
<polygon fill="black" stroke="black" points="95.4552,-466.74 84.8793,-467.373 93.5417,-473.473 95.4552,-466.74"/>
</g>
<!-- Posters -->
<g id="node3" class="node"><title>Posters</title>
<polygon fill="none" stroke="black" points="573.345,-700.987 517.345,-700.987 517.345,-664.987 573.345,-664.987 573.345,-700.987"/>
<text text-anchor="middle" x="545.345" y="-679.287" font-family="Times,serif" font-size="14.00">Posters</text>
</g>
<!-- Posters&#45;&gt;Authors -->
<g id="edge19" class="edge"><title>Posters&#45;&gt;Authors</title>
<path fill="none" stroke="black" d="M527.103,-664.745C507.053,-644.695 474.709,-612.351 452.219,-589.861"/>
<polygon fill="black" stroke="black" points="454.548,-587.24 445.002,-582.644 449.599,-592.19 454.548,-587.24"/>
</g>
<!-- Board No -->
<g id="node20" class="node"><title>Board No</title>
<ellipse fill="none" stroke="black" cx="641.009" cy="-876.035" rx="45.4919" ry="18"/>
<text text-anchor="middle" x="641.009" y="-872.335" font-family="Times,serif" font-size="14.00">Board No</text>
</g>
<!-- Posters&#45;&gt;Board No -->
<g id="edge20" class="edge"><title>Posters&#45;&gt;Board No</title>
<path fill="none" stroke="black" d="M554.345,-701.148C571.275,-735.313 607.933,-809.289 627.713,-849.204"/>
<polygon fill="black" stroke="black" points="624.665,-850.936 632.241,-858.342 630.937,-847.828 624.665,-850.936"/>
</g>
<!-- Date and time -->
<g id="node21" class="node"><title>Date and time</title>
<ellipse fill="none" stroke="black" cx="464.696" cy="-880.256" rx="61.1893" ry="18"/>
<text text-anchor="middle" x="464.696" y="-876.556" font-family="Times,serif" font-size="14.00">Date and time</text>
</g>
<!-- Posters&#45;&gt;Date and time -->
<g id="edge21" class="edge"><title>Posters&#45;&gt;Date and time</title>
<path fill="none" stroke="black" d="M537.902,-701.192C523.673,-735.998 492.54,-812.149 475.827,-853.03"/>
<polygon fill="black" stroke="black" points="472.549,-851.799 472.004,-862.38 479.028,-854.448 472.549,-851.799"/>
</g>
<!-- Room -->
<g id="node4" class="node"><title>Room</title>
<polygon fill="none" stroke="black" points="1453.31,-292.108 1399.31,-292.108 1399.31,-256.108 1453.31,-256.108 1453.31,-292.108"/>
<text text-anchor="middle" x="1426.31" y="-270.408" font-family="Times,serif" font-size="14.00">Room</text>
</g>
<!-- has screen -->
<g id="node22" class="node"><title>has screen</title>
<ellipse fill="none" stroke="black" cx="1251.78" cy="-250.404" rx="47.3916" ry="18"/>
<text text-anchor="middle" x="1251.78" y="-246.704" font-family="Times,serif" font-size="14.00">has screen</text>
</g>
<!-- Room&#45;&gt;has screen -->
<g id="edge22" class="edge"><title>Room&#45;&gt;has screen</title>
<path fill="none" stroke="black" d="M1399.04,-270.405C1374.4,-267.059 1337.41,-262.034 1306.66,-257.858"/>
<polygon fill="black" stroke="black" points="1306.88,-254.356 1296.5,-256.478 1305.94,-261.292 1306.88,-254.356"/>
</g>
<!-- has microphone -->
<g id="node23" class="node"><title>has microphone</title>
<ellipse fill="none" stroke="black" cx="1361.99" cy="-110.146" rx="67.6881" ry="18"/>
<text text-anchor="middle" x="1361.99" y="-106.446" font-family="Times,serif" font-size="14.00">has microphone</text>
</g>
<!-- Room&#45;&gt;has microphone -->
<g id="edge23" class="edge"><title>Room&#45;&gt;has microphone</title>
<path fill="none" stroke="black" d="M1419.18,-255.935C1407.97,-227.373 1386.16,-171.768 1372.95,-138.093"/>
<polygon fill="black" stroke="black" points="1376.06,-136.432 1369.15,-128.401 1369.54,-138.988 1376.06,-136.432"/>
</g>
<!-- has remote -->
<g id="node24" class="node"><title>has remote</title>
<ellipse fill="none" stroke="black" cx="1540.16" cy="-139.726" rx="50.0912" ry="18"/>
<text text-anchor="middle" x="1540.16" y="-136.026" font-family="Times,serif" font-size="14.00">has remote</text>
</g>
<!-- Room&#45;&gt;has remote -->
<g id="edge24" class="edge"><title>Room&#45;&gt;has remote</title>
<path fill="none" stroke="black" d="M1441.66,-255.985C1461.57,-232.482 1496.41,-191.367 1518.87,-164.859"/>
<polygon fill="black" stroke="black" points="1521.61,-167.029 1525.41,-157.137 1516.27,-162.504 1521.61,-167.029"/>
</g>
<!-- has whiteboard -->
<g id="node25" class="node"><title>has whiteboard</title>
<ellipse fill="none" stroke="black" cx="1599.25" cy="-307.432" rx="64.189" ry="18"/>
<text text-anchor="middle" x="1599.25" y="-303.732" font-family="Times,serif" font-size="14.00">has whiteboard</text>
</g>
<!-- Room&#45;&gt;has whiteboard -->
<g id="edge25" class="edge"><title>Room&#45;&gt;has whiteboard</title>
<path fill="none" stroke="black" d="M1453.33,-279.315C1475.43,-283.573 1507.56,-289.764 1536.05,-295.253"/>
<polygon fill="black" stroke="black" points="1535.47,-298.706 1545.95,-297.162 1536.8,-291.833 1535.47,-298.706"/>
</g>
<!-- seating capacity -->
<g id="node26" class="node"><title>seating capacity</title>
<ellipse fill="none" stroke="black" cx="1465.18" cy="-445.892" rx="67.6881" ry="18"/>
<text text-anchor="middle" x="1465.18" y="-442.192" font-family="Times,serif" font-size="14.00">seating capacity</text>
</g>
<!-- Room&#45;&gt;seating capacity -->
<g id="edge26" class="edge"><title>Room&#45;&gt;seating capacity</title>
<path fill="none" stroke="black" d="M1430.39,-292.168C1437.16,-322.067 1450.74,-382.075 1458.79,-417.629"/>
<polygon fill="black" stroke="black" points="1455.47,-418.836 1461.09,-427.817 1462.3,-417.291 1455.47,-418.836"/>
</g>
<!-- Number -->
<g id="node27" class="node"><title>Number</title>
<ellipse fill="none" stroke="black" cx="1300.11" cy="-396.966" rx="40.0939" ry="18"/>
<text text-anchor="middle" x="1300.11" y="-393.266" font-family="Times,serif" font-size="14.00">Number</text>
</g>
<!-- Room&#45;&gt;Number -->
<g id="edge27" class="edge"><title>Room&#45;&gt;Number</title>
<path fill="none" stroke="black" d="M1407.69,-292.237C1385.66,-313.678 1348.93,-349.441 1324.61,-373.114"/>
<polygon fill="black" stroke="black" points="1321.91,-370.858 1317.18,-380.341 1326.79,-375.874 1321.91,-370.858"/>
</g>
<!-- Chairs -->
<g id="node5" class="node"><title>Chairs</title>
<polygon fill="none" stroke="black" points="127.557,-355.811 73.5568,-355.811 73.5568,-319.811 127.557,-319.811 127.557,-355.811"/>
<text text-anchor="middle" x="100.557" y="-334.111" font-family="Times,serif" font-size="14.00">Chairs</text>
</g>
<!-- Chairs&#45;&gt;Authors -->
<g id="edge18" class="edge"><title>Chairs&#45;&gt;Authors</title>
<path fill="none" stroke="black" d="M126.714,-355.985C185.199,-396.62 326.557,-494.835 392.272,-540.493"/>
<polygon fill="black" stroke="black" points="390.443,-543.484 400.652,-546.315 394.437,-537.735 390.443,-543.484"/>
</g>
<!-- Microsymposium -->
<g id="node6" class="node"><title>Microsymposium</title>
<polygon fill="none" stroke="black" points="720.756,-582.576 606.756,-582.576 606.756,-546.576 720.756,-546.576 720.756,-582.576"/>
<text text-anchor="middle" x="663.756" y="-560.876" font-family="Times,serif" font-size="14.00">Microsymposium</text>
</g>
<!-- Microsymposium&#45;&gt;Talks -->
<g id="edge6" class="edge"><title>Microsymposium&#45;&gt;Talks</title>
<path fill="none" stroke="black" d="M645.514,-546.333C625.464,-526.283 593.12,-493.94 570.631,-471.45"/>
<polygon fill="black" stroke="black" points="572.96,-468.829 563.414,-464.233 568.01,-473.779 572.96,-468.829"/>
</g>
<!-- Microsymposium&#45;&gt;Posters -->
<g id="edge7" class="edge"><title>Microsymposium&#45;&gt;Posters</title>
<path fill="none" stroke="black" d="M645.514,-582.818C625.464,-602.868 593.12,-635.211 570.631,-657.701"/>
<polygon fill="black" stroke="black" points="568.01,-655.372 563.414,-664.918 572.96,-660.322 568.01,-655.372"/>
</g>
<!-- Microsymposium&#45;&gt;Room -->
<g id="edge5" class="edge"><title>Microsymposium&#45;&gt;Room</title>
<path fill="none" stroke="black" d="M711.169,-546.515C851.673,-492.995 1263.84,-335.993 1389.51,-288.125"/>
<polygon fill="black" stroke="black" points="1390.98,-291.31 1399.08,-284.48 1388.49,-284.769 1390.98,-291.31"/>
</g>
<!-- MS Title -->
<g id="node7" class="node"><title>MS Title</title>
<ellipse fill="none" stroke="black" cx="1470.85" cy="-627.059" rx="42.4939" ry="18"/>
<text text-anchor="middle" x="1470.85" y="-623.359" font-family="Times,serif" font-size="14.00">MS Title</text>
</g>
<!-- Microsymposium&#45;&gt;MS Title -->
<g id="edge1" class="edge"><title>Microsymposium&#45;&gt;MS Title</title>
<path fill="none" stroke="black" d="M720.831,-568.994C870.754,-580.601 1274.09,-611.827 1418.52,-623.008"/>
<polygon fill="black" stroke="black" points="1418.62,-626.526 1428.87,-623.809 1419.17,-619.547 1418.62,-626.526"/>
</g>
<!-- MS ID -->
<g id="node8" class="node"><title>MS ID</title>
<ellipse fill="none" stroke="black" cx="1448.72" cy="-775.245" rx="35.9954" ry="18"/>
<text text-anchor="middle" x="1448.72" y="-771.545" font-family="Times,serif" font-size="14.00">MS ID</text>
</g>
<!-- Microsymposium&#45;&gt;MS ID -->
<g id="edge2" class="edge"><title>Microsymposium&#45;&gt;MS ID</title>
<path fill="none" stroke="black" d="M720.841,-579.896C871.272,-620.269 1275.97,-728.881 1407.09,-764.073"/>
<polygon fill="black" stroke="black" points="1406.21,-767.46 1416.77,-766.672 1408.02,-760.699 1406.21,-767.46"/>
</g>
<!-- Date -->
<g id="node9" class="node"><title>Date</title>
<ellipse fill="none" stroke="black" cx="1408.6" cy="-904.068" rx="27.0966" ry="18"/>
<text text-anchor="middle" x="1408.6" y="-900.368" font-family="Times,serif" font-size="14.00">Date</text>
</g>
<!-- Microsymposium&#45;&gt;Date -->
<g id="edge3" class="edge"><title>Microsymposium&#45;&gt;Date</title>
<path fill="none" stroke="black" d="M703.276,-582.588C834.916,-642.588 1256.94,-834.944 1376.66,-889.512"/>
<polygon fill="black" stroke="black" points="1375.48,-892.819 1386.03,-893.781 1378.38,-886.449 1375.48,-892.819"/>
</g>
<!-- Start time -->
<g id="node10" class="node"><title>Start time</title>
<ellipse fill="none" stroke="black" cx="1345" cy="-1034.7" rx="46.2923" ry="18"/>
<text text-anchor="middle" x="1345" y="-1031" font-family="Times,serif" font-size="14.00">Start time</text>
</g>
<!-- Microsymposium&#45;&gt;Start time -->
<g id="edge4" class="edge"><title>Microsymposium&#45;&gt;Start time</title>
<path fill="none" stroke="black" d="M690.044,-582.717C796.81,-656.396 1197.79,-933.112 1313.54,-1012.99"/>
<polygon fill="black" stroke="black" points="1311.77,-1016.03 1321.99,-1018.82 1315.75,-1010.26 1311.77,-1016.03"/>
</g>
</g>
</svg>
