<?xml version="1.0" encoding="UTF-8" standalone="no"?>
<!DOCTYPE svg PUBLIC "-//W3C//DTD SVG 1.1//EN"
 "http://www.w3.org/Graphics/SVG/1.1/DTD/svg11.dtd">
<!-- Generated by graphviz version 2.38.0 (20140413.2041)
 -->
<!-- Title: G Pages: 1 -->
<svg width="1198pt" height="378pt"
 viewBox="0.00 0.00 1197.64 378.00" xmlns="http://www.w3.org/2000/svg" xmlns:xlink="http://www.w3.org/1999/xlink">
<g id="graph0" class="graph" transform="scale(1 1) rotate(0) translate(4 374)">
<title>G</title>
<polygon fill="white" stroke="none" points="-4,4 -4,-374 1193.64,-374 1193.64,4 -4,4"/>
<!-- Presentations -->
<g id="node1" class="node"><title>Presentations</title>
<polygon fill="none" stroke="black" points="915.044,-283 826.044,-283 826.044,-247 915.044,-247 915.044,-283"/>
<text text-anchor="middle" x="870.544" y="-261.3" font-family="Times,serif" font-size="14.00">Presentations</text>
</g>
<!-- Microsymposium -->
<g id="node7" class="node"><title>Microsymposium</title>
<polygon fill="none" stroke="black" points="675.544,-196 561.544,-196 561.544,-160 675.544,-160 675.544,-196"/>
<text text-anchor="middle" x="618.544" y="-174.3" font-family="Times,serif" font-size="14.00">Microsymposium</text>
</g>
<!-- Presentations&#45;&gt;Microsymposium -->
<g id="edge9" class="edge"><title>Presentations&#45;&gt;Microsymposium</title>
<path fill="none" stroke="black" d="M837.53,-246.955C816.032,-236.371 787.141,-223.098 760.544,-214 730.394,-203.687 719.951,-204.159 685.582,-196.17"/>
<polygon fill="black" stroke="black" points="686.305,-192.744 675.764,-193.811 684.67,-199.55 686.305,-192.744"/>
</g>
<!-- Title -->
<g id="node14" class="node"><title>Title</title>
<ellipse fill="none" stroke="black" cx="870.544" cy="-178" rx="27.0966" ry="18"/>
<text text-anchor="middle" x="870.544" y="-174.3" font-family="Times,serif" font-size="14.00">Title</text>
</g>
<!-- Presentations&#45;&gt;Title -->
<g id="edge6" class="edge"><title>Presentations&#45;&gt;Title</title>
<path fill="none" stroke="black" d="M870.544,-246.799C870.544,-235.163 870.544,-219.548 870.544,-206.237"/>
<polygon fill="black" stroke="black" points="874.044,-206.175 870.544,-196.175 867.044,-206.175 874.044,-206.175"/>
</g>
<!-- Abstract -->
<g id="node15" class="node"><title>Abstract</title>
<ellipse fill="none" stroke="black" cx="956.544" cy="-178" rx="40.0939" ry="18"/>
<text text-anchor="middle" x="956.544" y="-174.3" font-family="Times,serif" font-size="14.00">Abstract</text>
</g>
<!-- Presentations&#45;&gt;Abstract -->
<g id="edge7" class="edge"><title>Presentations&#45;&gt;Abstract</title>
<path fill="none" stroke="black" d="M887.947,-246.799C900.951,-233.947 918.864,-216.242 933.124,-202.147"/>
<polygon fill="black" stroke="black" points="935.965,-204.261 940.617,-194.742 931.044,-199.282 935.965,-204.261"/>
</g>
<!-- Presentation ID -->
<g id="node16" class="node"><title>Presentation ID</title>
<ellipse fill="none" stroke="black" cx="759.544" cy="-178" rx="65.7887" ry="18"/>
<text text-anchor="middle" x="759.544" y="-174.3" font-family="Times,serif" font-size="14.00">Presentation ID</text>
</g>
<!-- Presentations&#45;&gt;Presentation ID -->
<g id="edge8" class="edge"><title>Presentations&#45;&gt;Presentation ID</title>
<path fill="none" stroke="black" d="M851.983,-246.931C840.843,-236.961 826.222,-224.345 812.544,-214 806.498,-209.427 799.876,-204.786 793.425,-200.443"/>
<polygon fill="black" stroke="black" points="795.075,-197.338 784.803,-194.741 791.213,-203.176 795.075,-197.338"/>
</g>
<!-- Talks -->
<g id="node2" class="node"><title>Talks</title>
<polygon fill="none" stroke="black" points="754.544,-370 700.544,-370 700.544,-334 754.544,-334 754.544,-370"/>
<text text-anchor="middle" x="727.544" y="-348.3" font-family="Times,serif" font-size="14.00">Talks</text>
</g>
<!-- Talks&#45;&gt;Presentations -->
<g id="edge10" class="edge"><title>Talks&#45;&gt;Presentations</title>
<path fill="none" stroke="black" d="M754.855,-346.14C776.812,-341.244 807.662,-332.054 830.544,-316 839.689,-309.583 847.819,-300.499 854.321,-291.83"/>
<polygon fill="black" stroke="black" points="857.353,-293.603 860.257,-283.414 851.633,-289.568 857.353,-293.603"/>
<text text-anchor="middle" x="868.044" y="-304.8" font-family="Times,serif" font-size="14.00">Talk ID</text>
</g>
<!-- Time interval -->
<g id="node17" class="node"><title>Time interval</title>
<ellipse fill="none" stroke="black" cx="727.544" cy="-265" rx="59.2899" ry="18"/>
<text text-anchor="middle" x="727.544" y="-261.3" font-family="Times,serif" font-size="14.00">Time interval</text>
</g>
<!-- Talks&#45;&gt;Time interval -->
<g id="edge11" class="edge"><title>Talks&#45;&gt;Time interval</title>
<path fill="none" stroke="black" d="M739.749,-333.73C745.009,-324.24 749.378,-312.161 746.544,-301 745.769,-297.949 744.669,-294.876 743.383,-291.885"/>
<polygon fill="black" stroke="black" points="746.417,-290.125 738.818,-282.741 740.154,-293.251 746.417,-290.125"/>
<text text-anchor="middle" x="787.044" y="-304.8" font-family="Times,serif" font-size="14.00">Speaking time</text>
</g>
<!-- Talks&#45;&gt;Time interval -->
<g id="edge12" class="edge"><title>Talks&#45;&gt;Time interval</title>
<path fill="none" stroke="black" d="M700.295,-348.127C663.59,-343.631 601.266,-333.575 587.544,-316 583.441,-310.745 583.441,-306.255 587.544,-301 587.898,-300.546 634.032,-289.067 673.239,-279.378"/>
<polygon fill="black" stroke="black" points="674.157,-282.756 683.026,-276.961 672.478,-275.961 674.157,-282.756"/>
<text text-anchor="middle" x="626.544" y="-304.8" font-family="Times,serif" font-size="14.00">Question time</text>
</g>
<!-- Talks&#45;&gt;Time interval -->
<g id="edge13" class="edge"><title>Talks&#45;&gt;Time interval</title>
<path fill="none" stroke="black" d="M700.461,-335.275C688.507,-326.149 678.399,-313.925 684.544,-301 686.811,-296.232 690.08,-291.901 693.817,-288.038"/>
<polygon fill="black" stroke="black" points="696.338,-290.479 701.443,-281.195 691.663,-285.269 696.338,-290.479"/>
<text text-anchor="middle" x="713.544" y="-304.8" font-family="Times,serif" font-size="14.00">Total time</text>
</g>
<!-- Authors -->
<g id="node3" class="node"><title>Authors</title>
<polygon fill="none" stroke="black" points="463.544,-196 403.544,-196 403.544,-160 463.544,-160 463.544,-196"/>
<text text-anchor="middle" x="433.544" y="-174.3" font-family="Times,serif" font-size="14.00">Authors</text>
</g>
<!-- First name -->
<g id="node18" class="node"><title>First name</title>
<ellipse fill="none" stroke="black" cx="471.544" cy="-91" rx="48.9926" ry="18"/>
<text text-anchor="middle" x="471.544" y="-87.3" font-family="Times,serif" font-size="14.00">First name</text>
</g>
<!-- Authors&#45;&gt;First name -->
<g id="edge15" class="edge"><title>Authors&#45;&gt;First name</title>
<path fill="none" stroke="black" d="M441.234,-159.799C446.574,-147.854 453.788,-131.717 459.838,-118.183"/>
<polygon fill="black" stroke="black" points="463.109,-119.443 463.995,-108.885 456.718,-116.586 463.109,-119.443"/>
</g>
<!-- Last name -->
<g id="node19" class="node"><title>Last name</title>
<ellipse fill="none" stroke="black" cx="205.544" cy="-91" rx="48.1917" ry="18"/>
<text text-anchor="middle" x="205.544" y="-87.3" font-family="Times,serif" font-size="14.00">Last name</text>
</g>
<!-- Authors&#45;&gt;Last name -->
<g id="edge16" class="edge"><title>Authors&#45;&gt;Last name</title>
<path fill="none" stroke="black" d="M403.5,-175.118C353.845,-171.475 257.458,-161.994 230.544,-142 222.733,-136.197 217.205,-127.27 213.371,-118.556"/>
<polygon fill="black" stroke="black" points="216.557,-117.087 209.729,-108.985 210.014,-119.576 216.557,-117.087"/>
</g>
<!-- email -->
<g id="node20" class="node"><title>email</title>
<ellipse fill="none" stroke="black" cx="374.544" cy="-91" rx="30.5947" ry="18"/>
<text text-anchor="middle" x="374.544" y="-87.3" font-family="Times,serif" font-size="14.00">email</text>
</g>
<!-- Authors&#45;&gt;email -->
<g id="edge17" class="edge"><title>Authors&#45;&gt;email</title>
<path fill="none" stroke="black" d="M421.604,-159.799C412.986,-147.383 401.225,-130.439 391.616,-116.596"/>
<polygon fill="black" stroke="black" points="394.245,-114.245 385.667,-108.025 388.494,-118.236 394.245,-114.245"/>
</g>
<!-- Posters -->
<g id="node4" class="node"><title>Posters</title>
<polygon fill="none" stroke="black" points="1031.54,-370 975.544,-370 975.544,-334 1031.54,-334 1031.54,-370"/>
<text text-anchor="middle" x="1003.54" y="-348.3" font-family="Times,serif" font-size="14.00">Posters</text>
</g>
<!-- Posters&#45;&gt;Presentations -->
<g id="edge21" class="edge"><title>Posters&#45;&gt;Presentations</title>
<path fill="none" stroke="black" d="M975.855,-333.827C966.81,-328.181 956.73,-321.852 947.544,-316 933.539,-307.078 918.181,-297.137 904.89,-288.484"/>
<polygon fill="black" stroke="black" points="906.778,-285.537 896.49,-283.007 902.956,-291.401 906.778,-285.537"/>
<text text-anchor="middle" x="973.544" y="-304.8" font-family="Times,serif" font-size="14.00">Poster ID</text>
</g>
<!-- Board No -->
<g id="node21" class="node"><title>Board No</title>
<ellipse fill="none" stroke="black" cx="1003.54" cy="-265" rx="45.4919" ry="18"/>
<text text-anchor="middle" x="1003.54" y="-261.3" font-family="Times,serif" font-size="14.00">Board No</text>
</g>
<!-- Posters&#45;&gt;Board No -->
<g id="edge22" class="edge"><title>Posters&#45;&gt;Board No</title>
<path fill="none" stroke="black" d="M1003.54,-333.799C1003.54,-322.163 1003.54,-306.548 1003.54,-293.237"/>
<polygon fill="black" stroke="black" points="1007.04,-293.175 1003.54,-283.175 1000.04,-293.175 1007.04,-293.175"/>
</g>
<!-- Date and time -->
<g id="node22" class="node"><title>Date and time</title>
<ellipse fill="none" stroke="black" cx="1128.54" cy="-265" rx="61.1893" ry="18"/>
<text text-anchor="middle" x="1128.54" y="-261.3" font-family="Times,serif" font-size="14.00">Date and time</text>
</g>
<!-- Posters&#45;&gt;Date and time -->
<g id="edge23" class="edge"><title>Posters&#45;&gt;Date and time</title>
<path fill="none" stroke="black" d="M1028.84,-333.799C1048.53,-320.411 1075.96,-301.758 1097.07,-287.405"/>
<polygon fill="black" stroke="black" points="1099.09,-290.259 1105.39,-281.742 1095.16,-284.471 1099.09,-290.259"/>
</g>
<!-- Room -->
<g id="node5" class="node"><title>Room</title>
<polygon fill="none" stroke="black" points="325.544,-109 271.544,-109 271.544,-73 325.544,-73 325.544,-109"/>
<text text-anchor="middle" x="298.544" y="-87.3" font-family="Times,serif" font-size="14.00">Room</text>
</g>
<!-- seating capacity -->
<g id="node23" class="node"><title>seating capacity</title>
<ellipse fill="none" stroke="black" cx="235.544" cy="-18" rx="67.6881" ry="18"/>
<text text-anchor="middle" x="235.544" y="-14.3" font-family="Times,serif" font-size="14.00">seating capacity</text>
</g>
<!-- Room&#45;&gt;seating capacity -->
<g id="edge24" class="edge"><title>Room&#45;&gt;seating capacity</title>
<path fill="none" stroke="black" d="M283.293,-72.8129C275.555,-64.0918 266.015,-53.3402 257.501,-43.7459"/>
<polygon fill="black" stroke="black" points="259.909,-41.1858 250.654,-36.0288 254.673,-45.8318 259.909,-41.1858"/>
</g>
<!-- Number -->
<g id="node24" class="node"><title>Number</title>
<ellipse fill="none" stroke="black" cx="361.544" cy="-18" rx="40.0939" ry="18"/>
<text text-anchor="middle" x="361.544" y="-14.3" font-family="Times,serif" font-size="14.00">Number</text>
</g>
<!-- Room&#45;&gt;Number -->
<g id="edge25" class="edge"><title>Room&#45;&gt;Number</title>
<path fill="none" stroke="black" d="M313.794,-72.8129C321.84,-63.7455 331.833,-52.4832 340.595,-42.6087"/>
<polygon fill="black" stroke="black" points="343.278,-44.8585 347.297,-35.0556 338.042,-40.2125 343.278,-44.8585"/>
</g>
<!-- Chairs -->
<g id="node6" class="node"><title>Chairs</title>
<polygon fill="none" stroke="black" points="503.544,-283 449.544,-283 449.544,-247 503.544,-247 503.544,-283"/>
<text text-anchor="middle" x="476.544" y="-261.3" font-family="Times,serif" font-size="14.00">Chairs</text>
</g>
<!-- Chairs&#45;&gt;Authors -->
<g id="edge19" class="edge"><title>Chairs&#45;&gt;Authors</title>
<path fill="none" stroke="black" d="M449.384,-247.195C443.436,-242.127 437.915,-236.015 434.544,-229 431.182,-222.006 430.046,-213.801 429.991,-206.084"/>
<polygon fill="black" stroke="black" points="433.491,-206.179 430.479,-196.021 426.499,-205.84 433.491,-206.179"/>
<text text-anchor="middle" x="466.544" y="-217.8" font-family="Times,serif" font-size="14.00">Chair name</text>
</g>
<!-- Chairs&#45;&gt;Microsymposium -->
<g id="edge20" class="edge"><title>Chairs&#45;&gt;Microsymposium</title>
<path fill="none" stroke="black" d="M488.616,-246.708C496.838,-236.024 508.559,-222.734 521.544,-214 530.85,-207.74 541.411,-202.448 552.055,-198.025"/>
<polygon fill="black" stroke="black" points="553.369,-201.269 561.4,-194.359 550.812,-194.752 553.369,-201.269"/>
<text text-anchor="middle" x="553.544" y="-217.8" font-family="Times,serif" font-size="14.00">Chair name</text>
</g>
<!-- Microsymposium&#45;&gt;Room -->
<g id="edge5" class="edge"><title>Microsymposium&#45;&gt;Room</title>
<path fill="none" stroke="black" d="M561.513,-166.939C505.605,-156.277 418.101,-137.453 335.359,-108.932"/>
<polygon fill="black" stroke="black" points="336.411,-105.592 325.816,-105.591 334.098,-112.198 336.411,-105.592"/>
</g>
<!-- MS Title -->
<g id="node10" class="node"><title>MS Title</title>
<ellipse fill="none" stroke="black" cx="580.544" cy="-91" rx="42.4939" ry="18"/>
<text text-anchor="middle" x="580.544" y="-87.3" font-family="Times,serif" font-size="14.00">MS Title</text>
</g>
<!-- Microsymposium&#45;&gt;MS Title -->
<g id="edge1" class="edge"><title>Microsymposium&#45;&gt;MS Title</title>
<path fill="none" stroke="black" d="M610.854,-159.799C605.514,-147.854 598.3,-131.717 592.249,-118.183"/>
<polygon fill="black" stroke="black" points="595.369,-116.586 588.093,-108.885 588.979,-119.443 595.369,-116.586"/>
</g>
<!-- MS ID -->
<g id="node11" class="node"><title>MS ID</title>
<ellipse fill="none" stroke="black" cx="676.544" cy="-91" rx="35.9954" ry="18"/>
<text text-anchor="middle" x="676.544" y="-87.3" font-family="Times,serif" font-size="14.00">MS ID</text>
</g>
<!-- Microsymposium&#45;&gt;MS ID -->
<g id="edge2" class="edge"><title>Microsymposium&#45;&gt;MS ID</title>
<path fill="none" stroke="black" d="M630.281,-159.799C638.699,-147.463 650.167,-130.656 659.579,-116.862"/>
<polygon fill="black" stroke="black" points="662.669,-118.543 665.414,-108.31 656.887,-114.598 662.669,-118.543"/>
</g>
<!-- Date -->
<g id="node12" class="node"><title>Date</title>
<ellipse fill="none" stroke="black" cx="757.544" cy="-91" rx="27.0966" ry="18"/>
<text text-anchor="middle" x="757.544" y="-87.3" font-family="Times,serif" font-size="14.00">Date</text>
</g>
<!-- Microsymposium&#45;&gt;Date -->
<g id="edge3" class="edge"><title>Microsymposium&#45;&gt;Date</title>
<path fill="none" stroke="black" d="M646.673,-159.799C670.73,-145.088 705.184,-124.018 729.28,-109.284"/>
<polygon fill="black" stroke="black" points="731.259,-112.176 737.965,-103.973 727.607,-106.204 731.259,-112.176"/>
</g>
<!-- Start time -->
<g id="node13" class="node"><title>Start time</title>
<ellipse fill="none" stroke="black" cx="848.544" cy="-91" rx="46.2923" ry="18"/>
<text text-anchor="middle" x="848.544" y="-87.3" font-family="Times,serif" font-size="14.00">Start time</text>
</g>
<!-- Microsymposium&#45;&gt;Start time -->
<g id="edge4" class="edge"><title>Microsymposium&#45;&gt;Start time</title>
<path fill="none" stroke="black" d="M664.811,-159.901C706.257,-144.584 766.516,-122.314 806.588,-107.506"/>
<polygon fill="black" stroke="black" points="807.899,-110.752 816.066,-104.003 805.473,-104.186 807.899,-110.752"/>
</g>
<!-- Author Lists -->
<g id="node8" class="node"><title>Author Lists</title>
<polygon fill="none" stroke="black" points="650.044,-283 565.044,-283 565.044,-247 650.044,-247 650.044,-283"/>
<text text-anchor="middle" x="607.544" y="-261.3" font-family="Times,serif" font-size="14.00">Author Lists</text>
</g>
<!-- Author Lists&#45;&gt;Authors -->
<g id="edge14" class="edge"><title>Author Lists&#45;&gt;Authors</title>
<path fill="none" stroke="black" d="M604.124,-246.761C601.068,-235.82 595.48,-222.223 585.544,-214 568.739,-200.093 512.888,-189.829 473.791,-184.13"/>
<polygon fill="black" stroke="black" points="474.142,-180.645 463.751,-182.712 473.163,-187.576 474.142,-180.645"/>
<text text-anchor="middle" x="623.544" y="-217.8" font-family="Times,serif" font-size="14.00">an author</text>
</g>
<!-- Author Lists&#45;&gt;Presentation ID -->
<g id="edge18" class="edge"><title>Author Lists&#45;&gt;Presentation ID</title>
<path fill="none" stroke="black" d="M638.303,-246.799C662.824,-233.086 697.225,-213.85 723.121,-199.368"/>
<polygon fill="black" stroke="black" points="724.877,-202.396 731.897,-194.461 721.46,-196.287 724.877,-202.396"/>
<text text-anchor="middle" x="725.044" y="-217.8" font-family="Times,serif" font-size="14.00">is author of</text>
</g>
<!-- Equipment List -->
<g id="node9" class="node"><title>Equipment List</title>
<polygon fill="none" stroke="black" points="233.044,-196 132.044,-196 132.044,-160 233.044,-160 233.044,-196"/>
<text text-anchor="middle" x="182.544" y="-174.3" font-family="Times,serif" font-size="14.00">Equipment List</text>
</g>
<!-- Equipment List&#45;&gt;Room -->
<g id="edge27" class="edge"><title>Equipment List&#45;&gt;Room</title>
<path fill="none" stroke="black" d="M206.018,-159.799C223.549,-146.953 247.697,-129.258 266.928,-115.167"/>
<polygon fill="black" stroke="black" points="269.107,-117.909 275.104,-109.175 264.969,-112.263 269.107,-117.909"/>
<text text-anchor="middle" x="276.044" y="-130.8" font-family="Times,serif" font-size="14.00">is in room</text>
</g>
<!-- Equipment Type -->
<g id="node25" class="node"><title>Equipment Type</title>
<ellipse fill="none" stroke="black" cx="69.5438" cy="-91" rx="69.5877" ry="18"/>
<text text-anchor="middle" x="69.5438" y="-87.3" font-family="Times,serif" font-size="14.00">Equipment Type</text>
</g>
<!-- Equipment List&#45;&gt;Equipment Type -->
<g id="edge26" class="edge"><title>Equipment List&#45;&gt;Equipment Type</title>
<path fill="none" stroke="black" d="M140.649,-159.925C130.627,-154.896 120.303,-148.869 111.544,-142 102.485,-134.896 94.0047,-125.56 87.0689,-116.882"/>
<polygon fill="black" stroke="black" points="89.7824,-114.668 80.924,-108.856 84.2245,-118.924 89.7824,-114.668"/>
<text text-anchor="middle" x="151.544" y="-130.8" font-family="Times,serif" font-size="14.00">has equipment</text>
</g>
</g>
</svg>
